<svg width="200" height="219" viewBox="0 0 200 200" fill="none" xmlns="http://www.w3.org/2000/svg">
<path d="M147.5 88C173.734 88 195 109.266 195 135.5C195 161.733 173.734 183 147.5 183C121.266 183 117.5 166.5 100 135.5" stroke="#2E0303" stroke-width="10"/>
<path d="M52.5 183C26.2665 183 5.00002 161.734 5.00001 135.5C5.00001 109.266 26.2665 88 52.5 88C78.7335 88 82.5 104.5 100 135.5" stroke="#2E0303" stroke-width="10"/>
<path d="M16.5 216L110 5L181.5 216" stroke="#2E0303" stroke-width="10" stroke-linejoin="round"/>
<g filter="url(#filter0_d)">
<circle cx="156.5" cy="140.5" r="11.5" fill="#F5EAEA"/>
</g>
<g filter="url(#filter1_d)">
<circle cx="52.5" cy="135.5" r="11.5" fill="#F5EAEA"/>
</g>
<defs>
<filter id="filter0_d" x="135" y="119" width="43" height="43" filterUnits="userSpaceOnUse" color-interpolation-filters="sRGB">
<feFlood flood-opacity="0" result="BackgroundImageFix"/>
<feColorMatrix in="SourceAlpha" type="matrix" values="0 0 0 0 0 0 0 0 0 0 0 0 0 0 0 0 0 0 127 0"/>
<feOffset/>
<feGaussianBlur stdDeviation="5"/>
<feColorMatrix type="matrix" values="0 0 0 0 0.180392 0 0 0 0 0.0117647 0 0 0 0 0.0117647 0 0 0 1 0"/>
<feBlend mode="normal" in2="BackgroundImageFix" result="effect1_dropShadow"/>
<feBlend mode="normal" in="SourceGraphic" in2="effect1_dropShadow" result="shape"/>
</filter>
<filter id="filter1_d" x="31" y="114" width="43" height="43" filterUnits="userSpaceOnUse" color-interpolation-filters="sRGB">
<feFlood flood-opacity="0" result="BackgroundImageFix"/>
<feColorMatrix in="SourceAlpha" type="matrix" values="0 0 0 0 0 0 0 0 0 0 0 0 0 0 0 0 0 0 127 0"/>
<feOffset/>
<feGaussianBlur stdDeviation="5"/>
<feColorMatrix type="matrix" values="0 0 0 0 0.180392 0 0 0 0 0.0117647 0 0 0 0 0.0117647 0 0 0 1 0"/>
<feBlend mode="normal" in2="BackgroundImageFix" result="effect1_dropShadow"/>
<feBlend mode="normal" in="SourceGraphic" in2="effect1_dropShadow" result="shape"/>
</filter>
</defs>
</svg>
